<svg xmlns="http://www.w3.org/2000/svg" width="1200" height="600" viewBox="0 0 1200 600">
  <defs>
    <linearGradient id="bg4" x1="0%" y1="0%" x2="100%" y2="100%">
      <stop offset="0%" stop-color="#f59e0b"/>
      <stop offset="100%" stop-color="#d97706"/>
    </linearGradient>
    <linearGradient id="icon4" x1="0%" y1="0%" x2="100%" y2="100%">
      <stop offset="0%" stop-color="#ffffff"/>
      <stop offset="100%" stop-color="#fef3c7"/>
    </linearGradient>
  </defs>
  
  <rect width="1200" height="600" fill="url(#bg4)"/>
  
  <!-- Gaming elements -->
  <g fill="url(#icon4)" opacity="0.8">
    <!-- Game controller -->
    <rect x="200" y="250" width="100" height="60" rx="30"/>
    <circle cx="230" cy="280" r="8"/>
    <circle cx="270" cy="280" r="8"/>
    <rect x="240" y="300" width="20" height="8" rx="4"/>
    
    <!-- Console -->
    <rect x="800" y="300" width="120" height="80" rx="8"/>
    <rect x="810" y="310" width="100" height="60" rx="4"/>
    <circle cx="860" cy="340" r="3"/>
  </g>
  
  <!-- Energy waves -->
  <path d="M 100 400 Q 300 350 500 400 T 900 400" stroke="url(#icon4)" stroke-width="4" fill="none" opacity="0.6"/>
  <path d="M 100 450 Q 300 400 500 450 T 900 450" stroke="url(#icon4)" stroke-width="4" fill="none" opacity="0.4"/>
  
  <!-- Floating particles -->
  <circle cx="150" cy="150" r="4" fill="url(#icon4)" opacity="0.7">
    <animate attributeName="cy" values="150;100;150" dur="4s" repeatCount="indefinite"/>
  </circle>
  <circle cx="1050" cy="200" r="6" fill="url(#icon4)" opacity="0.7">
    <animate attributeName="cy" values="200;150;200" dur="3.5s" repeatCount="indefinite"/>
  </circle>
  <circle cx="500" cy="100" r="3" fill="url(#icon4)" opacity="0.7">
    <animate attributeName="cy" values="100;50;100" dur="5s" repeatCount="indefinite"/>
  </circle>
  
  <!-- Tech symbols -->
  <g fill="url(#icon4)" opacity="0.9">
    <polygon points="950,150 970,130 990,150 970,170"/>
    <rect x="960" y="140" width="20" height="20" rx="2"/>
  </g>
  
  <!-- Abstract shapes -->
  <ellipse cx="300" cy="500" rx="40" ry="20" fill="url(#icon4)" opacity="0.3"/>
  <ellipse cx="900" cy="100" rx="30" ry="15" fill="url(#icon4)" opacity="0.3"/>
</svg> 