<svg xmlns="http://www.w3.org/2000/svg" width="1200" height="600" viewBox="0 0 1200 600">
  <defs>
    <linearGradient id="bg1" x1="0%" y1="0%" x2="100%" y2="100%">
      <stop offset="0%" stop-color="#3b82f6"/>
      <stop offset="100%" stop-color="#1d4ed8"/>
    </linearGradient>
    <linearGradient id="icon1" x1="0%" y1="0%" x2="100%" y2="100%">
      <stop offset="0%" stop-color="#ffffff"/>
      <stop offset="100%" stop-color="#e2e8f0"/>
    </linearGradient>
  </defs>
  
  <rect width="1200" height="600" fill="url(#bg1)"/>
  
  <!-- Abstract tech elements -->
  <circle cx="200" cy="150" r="80" fill="url(#icon1)" opacity="0.1"/>
  <circle cx="1000" cy="450" r="120" fill="url(#icon1)" opacity="0.1"/>
  <rect x="800" y="100" width="200" height="120" rx="20" fill="url(#icon1)" opacity="0.1"/>
  
  <!-- Circuit pattern -->
  <path d="M 100 300 Q 300 200 500 300 T 900 300" stroke="url(#icon1)" stroke-width="2" fill="none" opacity="0.3"/>
  <path d="M 100 400 Q 300 350 500 400 T 900 400" stroke="url(#icon1)" stroke-width="2" fill="none" opacity="0.3"/>
  
  <!-- Tech icons -->
  <g fill="url(#icon1)" opacity="0.8">
    <rect x="150" y="350" width="60" height="80" rx="8"/>
    <circle cx="180" cy="390" r="15"/>
    <rect x="160" y="400" width="40" height="20" rx="4"/>
  </g>
  
  <g fill="url(#icon1)" opacity="0.8">
    <rect x="950" y="200" width="80" height="60" rx="8"/>
    <circle cx="990" cy="230" r="12"/>
    <rect x="960" y="240" width="60" height="12" rx="6"/>
  </g>
</svg> 